<?xml version="1.0" encoding="utf-8"?>
<!-- Generator: Adobe Illustrator 16.0.4, SVG Export Plug-In . SVG Version: 6.00 Build 0)  -->
<!DOCTYPE svg PUBLIC "-//W3C//DTD SVG 1.1//EN" "http://www.w3.org/Graphics/SVG/1.1/DTD/svg11.dtd">
<svg version="1.1" id="Layer_1" xmlns="http://www.w3.org/2000/svg" xmlns:xlink="http://www.w3.org/1999/xlink" x="0px" y="0px"
	 width="130px" height="102.537px" viewBox="0 0 130 102.537" enable-background="new 0 0 130 102.537" xml:space="preserve">
<g>
	<g>
		<path fill-rule="evenodd" clip-rule="evenodd" d="M130,102.537c-43.499,0-86.631,0-130,0C0,68.342,0,34.317,0,0
			c43.197,0,86.422,0,130,0C130,34.038,130,68.141,130,102.537z M53.999,15.003c-0.902-0.793-1.588-1.302-2.16-1.916
			c-3.266-3.513-6.938-4.059-10.602-1.036c-1.774,1.465-3.332,3.506-4.273,5.602c-6.43,14.33-6.597,29.182-3.218,44.239
			c1.218,5.424,2.736,10.767,7.107,14.691c4.203,3.771,9.698,2.781,12.253-2.125c0.498-0.955,1.131-3.57,2.197-3.482
			C56.368,71.063,57.2,75.89,58,77.961c0.389-0.098,0.777-0.197,1.164-0.296c0-9.479,0-18.958,0-28.239
			c1.814-0.445,3.096-0.76,4.377-1.074c-0.064-0.203-0.129-0.403-0.193-0.605c-5.677,0-11.353,0-17.03,0
			c-0.031,0.273-0.062,0.547-0.095,0.821c1.467,0.238,2.936,0.475,4.561,0.738c0,7.378,0.039,14.554-0.037,21.731
			c-0.012,1.222-0.226,2.618-0.861,3.608c-0.662,1.03-2.014,2.381-2.942,2.294c-1.203-0.11-2.767-1.274-3.31-2.398
			c-0.789-1.635-1.061-3.629-1.113-5.484c-0.3-10.586-0.695-21.177-0.605-31.762c0.061-7.28,0.709-14.569,1.455-21.818
			c0.136-1.31,1.836-3.084,3.145-3.439c0.928-0.252,3.048,1.262,3.536,2.439c1.76,4.247,3.039,8.689,4.53,13.047
			c0.389,1.131,0.89,2.223,1.337,3.333c0.232-0.101,0.464-0.202,0.694-0.304c0-6.477,0-12.954,0-19.431
			c-0.208-0.035-0.418-0.07-0.627-0.105C55.372,12.249,54.756,13.482,53.999,15.003z M72.819,71.691c0,0,0.561-0.963,1.28,0.01
			c0.593,0.916,1.247,1.799,1.768,2.754c2.226,4.097,5.285,5.768,9.31,3.502c3.059-1.72,5.999-4.77,7.484-7.928
			c5.186-11.039,5.981-22.967,4.352-34.818c-0.892-6.489-2.952-13.079-5.835-18.969c-3.386-6.919-8.799-7.329-14.504-2.271
			c-1.359,1.206-2.377,1.402-3.08-0.616c-0.243-0.692-0.737-1.298-1.604-2.779c0,7.403,0,13.752,0,20.102
			c1.182-0.729,1.494-1.592,1.778-2.465c1.317-4.061,2.494-8.177,3.999-12.168c0.826-2.188,2.057-5.195,4.917-4.087
			c1.711,0.664,1.822,1.808,2.999,3.703c0.235,0.379,1.49,30.664,1.521,44.417c0.01,4.634-0.542,9.319-1.402,13.876
			c-0.263,1.395-2.407,3.381-3.684,3.375c-1.259-0.006-3.537-2.153-3.589-3.43c-0.328-8.242-0.169-16.504-0.169-24.775
			c1.393-0.248,2.811-0.501,4.229-0.755c-0.055-0.149-0.109-0.298-0.164-0.449c-5.599,0-11.198,0-16.797,0
			c0.002,0.195,0.003,0.391,0.006,0.586c1.206,0.224,2.412,0.446,4.225,0.781c0,9.439,0,18.854,0,28.268
			c0.286,0.031,0.574,0.062,0.859,0.094C71.419,75.662,72.819,71.691,72.819,71.691z"/>
		<path fill-rule="evenodd" clip-rule="evenodd" fill="#FFFFFF" d="M53.999,15.003c0.757-1.521,1.373-2.754,1.987-3.987
			c0.209,0.035,0.418,0.07,0.627,0.105c0,6.477,0,12.954,0,19.431c-0.23,0.102-0.462,0.203-0.694,0.304
			c-0.448-1.109-0.949-2.201-1.337-3.333c-1.492-4.357-2.771-8.8-4.53-13.047c-0.488-1.177-2.608-2.691-3.536-2.439
			c-1.309,0.355-3.009,2.129-3.145,3.439c-0.745,7.249-1.394,14.538-1.455,21.818c-0.089,10.585,0.305,21.176,0.605,31.762
			c0.052,1.855,0.324,3.85,1.113,5.484c0.543,1.124,2.107,2.288,3.31,2.398c0.929,0.087,2.28-1.264,2.942-2.294
			c0.635-0.99,0.849-2.387,0.861-3.608c0.076-7.178,0.037-14.354,0.037-21.731c-1.625-0.263-3.093-0.5-4.561-0.738
			c0.032-0.273,0.063-0.547,0.095-0.821c5.677,0,11.353,0,17.03,0c0.064,0.202,0.129,0.402,0.193,0.605
			c-1.281,0.314-2.563,0.629-4.377,1.074c0,9.281,0,18.759,0,28.239c-0.387,0.099-0.775,0.198-1.164,0.296
			c-0.8-2.071-1.254-6.914-2.697-6.984c-1.444-0.07-1.699,2.527-2.197,3.482c-2.556,4.906-8.051,5.896-12.253,2.125
			c-4.371-3.925-5.889-9.268-7.107-14.691c-3.378-15.057-3.212-29.909,3.218-44.239c0.941-2.096,2.499-4.137,4.273-5.602
			c3.664-3.023,7.336-2.478,10.602,1.036C52.411,13.702,53.097,14.21,53.999,15.003z"/>
		<path fill-rule="evenodd" clip-rule="evenodd" fill="#B28442" d="M72.821,71.67c0,0-1.399,3.969-2.102,5.955
			c-0.285-0.031-0.572-0.062-0.859-0.094c0-9.412,0-18.826,0-28.267c-1.812-0.336-3.019-0.558-4.224-0.781
			c-0.003-0.195-0.004-0.391-0.007-0.586c5.599,0,11.198,0,16.797,0c0.055,0.149,0.109,0.299,0.164,0.448
			c-1.418,0.254-2.836,0.507-4.229,0.755c0,8.272-0.158,16.532,0.169,24.774c0.052,1.277,2.33,3.424,3.589,3.431
			c1.276,0.006,3.421-1.981,3.685-3.376c0.859-4.557,1.411-9.24,1.402-13.875c-0.03-13.752-1.125-29.611-1.357-43.363
			c-0.009-0.504-1.477-3.75-3.165-4.471c-2.56-1.097-3.953,1.542-4.779,3.731c-1.506,3.991-2.816,8.177-4.135,12.238
			c-0.283,0.873-0.595,1.736-1.778,2.465c0-6.349,0-12.697,0-20.101c0.866,1.481,1.361,2.086,1.604,2.779
			c0.703,2.019,1.721,1.822,3.081,0.616C82.381,8.891,87.793,9.3,91.18,16.219c2.882,5.892,4.942,12.48,5.834,18.969
			c1.631,11.851,0.835,23.779-4.352,34.817c-1.485,3.159-4.425,6.209-7.483,7.929c-4.024,2.266-7.085,0.595-9.311-3.503
			c-0.521-0.954-1.767-2.754-1.767-2.754C73.391,70.717,72.821,71.67,72.821,71.67z"/>
	</g>
	<g>
		<path fill="#B28442" d="M12.399,87.814l-0.208,0.03l-0.36-1.356c-0.423-0.111-0.821-0.166-1.193-0.166
			c-0.868,0-1.545,0.293-2.032,0.878s-0.73,1.392-0.73,2.421c0,1.039,0.265,1.865,0.794,2.479c0.529,0.613,1.243,0.92,2.138,0.92
			c0.301,0,0.597-0.039,0.887-0.114v-1.383c0-0.173-0.001-0.33-0.003-0.472s-0.004-0.271-0.008-0.389
			c-0.003-0.09-0.045-0.146-0.124-0.17l-0.646-0.203l-0.01-0.223c0.448,0.011,0.877,0.016,1.29,0.016
			c0.418,0,0.823-0.005,1.211-0.016l0.026,0.223l-0.568,0.166c-0.083,0.027-0.128,0.082-0.135,0.16
			c-0.003,0.139-0.006,0.279-0.008,0.423c-0.002,0.144-0.003,0.298-0.003,0.464v1.656l-0.031,0.037
			c-0.71,0.169-1.362,0.254-1.956,0.254c-1.221,0-2.191-0.321-2.913-0.964c-0.722-0.642-1.083-1.538-1.083-2.688
			c0-1.222,0.375-2.18,1.125-2.871c0.751-0.692,1.773-1.039,3.069-1.039c0.559,0,1.146,0.071,1.761,0.213l0.031,0.041L12.399,87.814
			z"/>
		<path fill="#B28442" d="M17.85,91.668c0,0.207,0.001,0.393,0.002,0.559c0.002,0.166,0.004,0.316,0.008,0.451
			c0.003,0.106,0.049,0.174,0.136,0.201l0.579,0.172l0.016,0.223c-0.414-0.011-0.827-0.016-1.24-0.016
			c-0.42,0-0.851,0.005-1.292,0.016l-0.021-0.223l0.641-0.192c0.087-0.024,0.134-0.077,0.141-0.161
			c0.003-0.137,0.006-0.292,0.008-0.463c0.001-0.171,0.002-0.359,0.002-0.566v-4.201c0-0.176-0.001-0.335-0.002-0.477
			c-0.002-0.142-0.004-0.27-0.008-0.383c-0.003-0.09-0.045-0.148-0.125-0.177l-0.646-0.202l-0.01-0.223
			c0.448,0.014,0.886,0.021,1.313,0.021c0.084,0,0.191-0.003,0.321-0.008c0.13-0.006,0.288-0.012,0.474-0.019
			c0.189-0.007,0.347-0.013,0.474-0.016c0.127-0.003,0.226-0.005,0.3-0.005c0.8,0,1.4,0.148,1.801,0.445c0.4,0.297,0.6,0.73,0.6,1.3
			c0,0.515-0.137,0.932-0.411,1.251c-0.275,0.319-0.693,0.565-1.257,0.738c0.222,0.331,0.426,0.651,0.613,0.961
			c0.187,0.309,0.36,0.592,0.52,0.85c0.16,0.257,0.307,0.484,0.44,0.681c0.134,0.196,0.257,0.353,0.372,0.466
			c0.059,0.059,0.118,0.109,0.177,0.152c0.059,0.044,0.121,0.079,0.185,0.107c0.065,0.027,0.132,0.051,0.204,0.072
			c0.071,0.021,0.149,0.041,0.237,0.062l0.016,0.227c-0.25,0.031-0.46,0.047-0.63,0.047c-0.143,0-0.268-0.003-0.375-0.01
			c-0.108-0.008-0.204-0.021-0.289-0.041c-0.084-0.021-0.161-0.048-0.229-0.081c-0.069-0.032-0.137-0.075-0.204-0.127
			c-0.144-0.106-0.286-0.261-0.425-0.464c-0.14-0.201-0.284-0.43-0.434-0.686c-0.15-0.256-0.306-0.527-0.468-0.816
			c-0.162-0.288-0.333-0.57-0.512-0.846c-0.052-0.084-0.097-0.148-0.134-0.197s-0.078-0.086-0.121-0.114
			c-0.045-0.027-0.096-0.046-0.153-0.058c-0.059-0.01-0.133-0.017-0.225-0.02L17.85,89.87V91.668z M17.85,89.481
			c0.211,0.011,0.408,0.016,0.589,0.016c0.601,0,1.041-0.127,1.321-0.381c0.279-0.253,0.418-0.651,0.418-1.194
			c0-0.523-0.133-0.907-0.4-1.149c-0.268-0.241-0.686-0.362-1.256-0.362c-0.097,0-0.201,0.004-0.312,0.01
			c-0.111,0.008-0.231,0.018-0.359,0.031V89.481z"/>
		<path fill="#B28442" d="M26.917,91.668c0,0.207,0.001,0.395,0.002,0.564c0.002,0.168,0.004,0.322,0.008,0.461
			c0.003,0.086,0.064,0.145,0.182,0.176l0.588,0.182l0.011,0.223c-0.448-0.011-0.879-0.016-1.292-0.016
			c-0.42,0-0.852,0.005-1.292,0.016l-0.021-0.223l0.641-0.192c0.087-0.024,0.134-0.077,0.141-0.161
			c0.003-0.137,0.006-0.292,0.008-0.463c0.001-0.171,0.002-0.359,0.002-0.566v-4.201c0-0.176-0.001-0.335-0.002-0.477
			c-0.002-0.142-0.004-0.27-0.008-0.383c-0.003-0.09-0.045-0.148-0.125-0.177l-0.646-0.202l-0.011-0.223
			c0.448,0.014,0.879,0.021,1.292,0.021c0.417,0,0.848-0.008,1.292-0.021l0.021,0.223l-0.646,0.191
			c-0.083,0.021-0.128,0.074-0.135,0.161c-0.004,0.121-0.006,0.253-0.008,0.396c-0.001,0.145-0.002,0.301-0.002,0.469V91.668z"/>
		<path fill="#B28442" d="M32.547,91.668c0,0.406,0.003,0.742,0.01,1.004c0.003,0.083,0.048,0.137,0.136,0.16l0.719,0.219
			l0.01,0.223c-0.503-0.011-0.962-0.016-1.375-0.016c-0.414,0-0.844,0.005-1.292,0.016l-0.021-0.223l0.641-0.192
			c0.09-0.027,0.137-0.081,0.141-0.161c0.007-0.279,0.01-0.623,0.01-1.029v-4.201c0-0.176-0.001-0.335-0.002-0.477
			c-0.002-0.142-0.005-0.27-0.008-0.383c-0.004-0.09-0.046-0.148-0.125-0.177l-0.646-0.202l-0.01-0.223
			c0.448,0.014,0.878,0.021,1.292,0.021h1.266c0.778,0,1.599-0.008,2.464-0.021l0.032,0.041l-0.302,1.602l-0.209,0.035l-0.322-1.195
			h-2.408v2.957h0.5c0.361,0,0.765-0.004,1.209-0.01c0.094-0.004,0.152-0.049,0.177-0.135l0.214-0.699l0.25-0.011
			c-0.01,0.483-0.016,0.841-0.016,1.071c0,0.225,0.005,0.578,0.016,1.057l-0.25,0.021l-0.219-0.709
			c-0.028-0.09-0.08-0.137-0.156-0.141c-0.455-0.007-0.865-0.01-1.229-0.01h-0.495V91.668z"/>
		<path fill="#B28442" d="M40.463,91.668c0,0.406,0.004,0.742,0.011,1.004c0.003,0.083,0.048,0.137,0.135,0.16l0.719,0.219
			l0.011,0.223c-0.504-0.011-0.962-0.016-1.376-0.016c-0.413,0-0.844,0.005-1.292,0.016l-0.021-0.223l0.641-0.192
			c0.09-0.027,0.138-0.081,0.141-0.161c0.007-0.279,0.01-0.623,0.01-1.029v-4.201c0-0.176-0.001-0.335-0.002-0.477
			c-0.002-0.142-0.004-0.27-0.008-0.383c-0.003-0.09-0.045-0.148-0.125-0.177l-0.646-0.202l-0.01-0.223
			c0.448,0.014,0.879,0.021,1.292,0.021h1.267c0.778,0,1.6-0.008,2.464-0.021l0.031,0.041l-0.302,1.602l-0.209,0.035l-0.323-1.195
			h-2.408v2.957h0.5c0.362,0,0.765-0.004,1.209-0.01c0.093-0.004,0.153-0.049,0.177-0.135l0.213-0.699l0.25-0.011
			c-0.01,0.483-0.016,0.841-0.016,1.071c0,0.225,0.006,0.578,0.016,1.057l-0.25,0.021l-0.219-0.709
			c-0.028-0.09-0.081-0.137-0.156-0.141c-0.456-0.007-0.865-0.01-1.23-0.01h-0.495V91.668z"/>
		<path fill="#B28442" d="M48.381,91.668c0,0.207,0.001,0.395,0.002,0.564c0.002,0.168,0.005,0.322,0.008,0.461
			c0.003,0.086,0.064,0.145,0.182,0.176l0.589,0.182l0.01,0.223c-0.448-0.011-0.879-0.016-1.292-0.016
			c-0.42,0-0.851,0.005-1.292,0.016l-0.021-0.223l0.641-0.192c0.087-0.024,0.133-0.077,0.141-0.161
			c0.003-0.137,0.006-0.292,0.008-0.463c0.001-0.171,0.002-0.359,0.002-0.566v-4.201c0-0.176-0.001-0.335-0.002-0.477
			c-0.002-0.142-0.004-0.27-0.008-0.383c-0.004-0.09-0.045-0.148-0.125-0.177l-0.646-0.202l-0.01-0.223
			c0.448,0.014,0.879,0.021,1.292,0.021c0.417,0,0.848-0.008,1.292-0.021l0.021,0.223l-0.646,0.191
			c-0.083,0.021-0.128,0.074-0.135,0.161c-0.003,0.121-0.006,0.253-0.008,0.396c-0.001,0.145-0.002,0.301-0.002,0.469V91.668z"/>
		<path fill="#B28442" d="M53.526,87.482v4.186c0,0.406,0.003,0.745,0.01,1.015c0.003,0.097,0.047,0.155,0.131,0.176l0.62,0.181
			l0.01,0.234c-0.435-0.011-0.791-0.016-1.068-0.016c-0.271,0-0.63,0.005-1.078,0.016l-0.021-0.223l0.641-0.192
			c0.09-0.027,0.137-0.081,0.141-0.161c0.007-0.279,0.011-0.623,0.011-1.029v-4.201c0-0.346-0.003-0.632-0.011-0.859
			c-0.003-0.09-0.045-0.148-0.125-0.177l-0.646-0.202l-0.011-0.223c0.448,0.014,0.803,0.021,1.063,0.021
			c0.156,0,0.314-0.008,0.475-0.021l4.376,5.434v-3.994c0-0.334-0.003-0.623-0.01-0.864c-0.004-0.079-0.049-0.133-0.136-0.161
			l-0.615-0.176l-0.01-0.238c0.445,0.014,0.804,0.021,1.079,0.021c0.277,0,0.634-0.008,1.068-0.021l0.021,0.223l-0.656,0.202
			c-0.08,0.028-0.122,0.087-0.125,0.177c-0.007,0.228-0.01,0.514-0.01,0.859v5.791l-0.438,0.041L53.526,87.482z"/>
		<path fill="#B28442" d="M72.462,87.814l-0.208,0.03l-0.359-1.356c-0.424-0.111-0.821-0.166-1.192-0.166
			c-0.869,0-1.547,0.293-2.033,0.878s-0.729,1.392-0.729,2.421c0,1.039,0.264,1.865,0.794,2.479c0.528,0.613,1.241,0.92,2.137,0.92
			c0.301,0,0.597-0.039,0.888-0.114v-1.383c0-0.173-0.001-0.33-0.002-0.472c-0.002-0.142-0.005-0.271-0.008-0.389
			c-0.004-0.09-0.045-0.146-0.125-0.17l-0.646-0.203l-0.011-0.223c0.447,0.011,0.877,0.016,1.289,0.016
			c0.419,0,0.822-0.005,1.211-0.016l0.025,0.223l-0.566,0.166c-0.085,0.027-0.13,0.082-0.137,0.16
			c-0.003,0.139-0.006,0.279-0.008,0.423c-0.001,0.144-0.002,0.298-0.002,0.464v1.656l-0.031,0.037
			c-0.709,0.169-1.361,0.254-1.956,0.254c-1.221,0-2.19-0.321-2.912-0.964c-0.722-0.642-1.082-1.538-1.082-2.688
			c0-1.222,0.375-2.18,1.125-2.871c0.751-0.692,1.774-1.039,3.07-1.039c0.559,0,1.145,0.071,1.76,0.213l0.031,0.041L72.462,87.814z"
			/>
		<path fill="#B28442" d="M79.856,85.897l2.313,6.335c0.086,0.238,0.165,0.398,0.236,0.484c0.072,0.084,0.173,0.146,0.305,0.188
			l0.49,0.146l0.011,0.223c-0.455-0.011-0.878-0.016-1.267-0.016c-0.396,0-0.863,0.005-1.401,0.016l-0.021-0.223l0.494-0.146
			c0.069-0.024,0.12-0.052,0.149-0.081s0.044-0.074,0.044-0.137c0-0.068-0.019-0.16-0.055-0.271
			c-0.036-0.112-0.088-0.262-0.154-0.448l-0.489-1.388H78l-0.547,1.383c-0.073,0.193-0.131,0.347-0.172,0.461
			c-0.041,0.113-0.062,0.203-0.062,0.27c0,0.059,0.017,0.102,0.05,0.131c0.032,0.029,0.082,0.055,0.147,0.076l0.485,0.139
			l0.011,0.234c-0.494-0.011-0.897-0.016-1.21-0.016s-0.661,0.005-1.047,0.016l-0.025-0.223l0.525-0.161
			c0.133-0.042,0.229-0.105,0.291-0.192c0.063-0.086,0.134-0.221,0.21-0.403l2.662-6.319L79.856,85.897z M78.194,90.108h2.146
			l-1.016-2.854L78.194,90.108z"/>
		<path fill="#B28442" d="M87.745,87.445v4.211c0,0.384,0.004,0.762,0.011,1.135h2.538l0.667-1.373l0.233-0.035l-0.114,1.854
			l-0.031,0.037c-0.9-0.011-1.731-0.016-2.496-0.016h-1.309c-0.42,0-0.85,0.005-1.292,0.016l-0.021-0.223l0.641-0.192
			c0.088-0.024,0.135-0.077,0.142-0.161c0.004-0.137,0.006-0.292,0.008-0.463s0.003-0.359,0.003-0.566v-4.201
			c0-0.176-0.001-0.335-0.003-0.477s-0.004-0.27-0.008-0.383c-0.003-0.09-0.046-0.148-0.126-0.177l-0.646-0.202l-0.01-0.223
			c0.449,0.014,0.879,0.021,1.292,0.021c0.417,0,0.849-0.008,1.292-0.021l0.021,0.223L87.89,86.42
			c-0.083,0.021-0.128,0.074-0.135,0.161c-0.003,0.121-0.006,0.297-0.008,0.528S87.745,87.453,87.745,87.445z"/>
		<path fill="#B28442" d="M95.804,87.445v4.211c0,0.384,0.004,0.762,0.012,1.135h2.536l0.667-1.373l0.235-0.035l-0.114,1.854
			l-0.031,0.037c-0.9-0.011-1.733-0.016-2.496-0.016h-1.309c-0.42,0-0.852,0.005-1.292,0.016l-0.021-0.223l0.641-0.192
			c0.086-0.024,0.133-0.077,0.14-0.161c0.004-0.137,0.006-0.292,0.008-0.463s0.003-0.359,0.003-0.566v-4.201
			c0-0.176-0.001-0.335-0.003-0.477s-0.004-0.27-0.008-0.383c-0.003-0.09-0.045-0.148-0.124-0.177l-0.646-0.202l-0.01-0.223
			c0.447,0.014,0.879,0.021,1.292,0.021c0.416,0,0.848-0.008,1.292-0.021l0.021,0.223l-0.646,0.191
			c-0.083,0.021-0.129,0.074-0.135,0.161c-0.004,0.121-0.006,0.297-0.009,0.528C95.805,87.341,95.804,87.453,95.804,87.445z"/>
		<path fill="#B28442" d="M103.343,86.027h1.266c0.779,0,1.6-0.008,2.466-0.021l0.03,0.041l-0.302,1.602l-0.208,0.035l-0.323-1.195
			h-2.408v2.848h0.476c0.361,0,0.764-0.003,1.208-0.01c0.091-0.004,0.15-0.049,0.178-0.135l0.182-0.699l0.281-0.01
			c-0.011,0.482-0.016,0.84-0.016,1.072c0,0.224,0.005,0.576,0.016,1.057l-0.281,0.02l-0.187-0.709
			c-0.028-0.09-0.082-0.137-0.163-0.141c-0.451-0.006-0.858-0.01-1.223-0.01h-0.471v1.885c0,0.384,0.004,0.762,0.011,1.135h2.502
			l0.636-1.315l0.233-0.042l-0.114,1.803l-0.036,0.037c-0.9-0.011-1.729-0.016-2.491-0.016h-1.239c-0.422,0-0.852,0.005-1.292,0.016
			l-0.021-0.223l0.641-0.192c0.086-0.024,0.133-0.077,0.14-0.161c0.004-0.137,0.006-0.292,0.008-0.463s0.003-0.359,0.003-0.566
			v-4.201c0-0.176-0.001-0.335-0.003-0.477s-0.004-0.27-0.008-0.383c-0.003-0.09-0.045-0.148-0.124-0.177l-0.646-0.202l-0.01-0.223
			C102.5,86.02,102.929,86.027,103.343,86.027z"/>
		<path fill="#B28442" d="M112.028,91.668c0,0.207,0.001,0.393,0.003,0.559s0.005,0.316,0.008,0.451
			c0.004,0.106,0.049,0.174,0.137,0.201l0.577,0.172l0.016,0.223c-0.413-0.011-0.826-0.016-1.239-0.016
			c-0.422,0-0.852,0.005-1.292,0.016l-0.021-0.223l0.641-0.192c0.086-0.024,0.133-0.077,0.14-0.161
			c0.004-0.137,0.006-0.292,0.008-0.463s0.003-0.359,0.003-0.566v-4.201c0-0.176-0.001-0.335-0.003-0.477s-0.004-0.27-0.008-0.383
			c-0.003-0.09-0.045-0.148-0.124-0.177l-0.646-0.202l-0.01-0.223c0.447,0.014,0.884,0.021,1.313,0.021
			c0.083,0,0.189-0.003,0.319-0.008c0.131-0.006,0.287-0.012,0.475-0.019c0.19-0.007,0.348-0.013,0.474-0.016
			c0.127-0.003,0.227-0.005,0.3-0.005c0.801,0,1.401,0.148,1.802,0.445c0.399,0.297,0.601,0.73,0.601,1.3
			c0,0.515-0.139,0.932-0.414,1.251c-0.272,0.319-0.693,0.565-1.255,0.738c0.221,0.331,0.425,0.651,0.61,0.961
			c0.188,0.309,0.362,0.592,0.521,0.85c0.16,0.257,0.307,0.484,0.439,0.681c0.135,0.196,0.258,0.353,0.373,0.466
			c0.06,0.059,0.118,0.109,0.177,0.152c0.059,0.044,0.121,0.079,0.186,0.107c0.064,0.027,0.132,0.051,0.202,0.072
			c0.072,0.021,0.151,0.041,0.238,0.062l0.016,0.227c-0.251,0.031-0.46,0.047-0.631,0.047c-0.142,0-0.269-0.003-0.376-0.01
			c-0.107-0.008-0.205-0.021-0.289-0.041c-0.084-0.021-0.16-0.048-0.229-0.081c-0.068-0.032-0.136-0.075-0.202-0.127
			c-0.146-0.106-0.287-0.261-0.427-0.464c-0.139-0.201-0.282-0.43-0.433-0.686c-0.148-0.256-0.306-0.527-0.467-0.816
			c-0.163-0.288-0.333-0.57-0.513-0.846c-0.053-0.084-0.098-0.148-0.135-0.197c-0.036-0.049-0.076-0.086-0.122-0.114
			c-0.044-0.027-0.095-0.046-0.152-0.058c-0.058-0.01-0.134-0.017-0.226-0.02l-0.364-0.011V91.668z M112.028,89.481
			c0.213,0.011,0.408,0.016,0.59,0.016c0.601,0,1.041-0.127,1.32-0.381c0.28-0.253,0.419-0.651,0.419-1.194
			c0-0.523-0.133-0.907-0.4-1.149c-0.268-0.241-0.687-0.362-1.256-0.362c-0.097,0-0.201,0.004-0.313,0.01
			c-0.11,0.008-0.23,0.018-0.359,0.031V89.481z"/>
		<path fill="#B28442" d="M121.783,89.57l1.205-2.264c0.087-0.166,0.159-0.308,0.218-0.426c0.059-0.117,0.089-0.213,0.089-0.289
			c0-0.107-0.077-0.182-0.229-0.223l-0.47-0.125l-0.011-0.238c0.375,0.014,0.76,0.021,1.152,0.021c0.378,0,0.746-0.008,1.104-0.021
			l0.021,0.223l-0.525,0.166c-0.126,0.038-0.222,0.099-0.289,0.182c-0.067,0.082-0.138,0.185-0.207,0.305l-1.802,3.196v1.575
			c0,0.207,0.001,0.395,0.003,0.564c0.001,0.168,0.004,0.322,0.008,0.461c0.003,0.086,0.063,0.145,0.181,0.176l0.646,0.197
			l0.011,0.223c-0.485-0.011-0.936-0.016-1.347-0.016c-0.422,0-0.872,0.005-1.353,0.016l-0.021-0.223l0.698-0.208
			c0.086-0.024,0.133-0.077,0.141-0.16c0.004-0.138,0.007-0.293,0.009-0.464s0.003-0.359,0.003-0.566v-1.467l-1.835-3.159
			c-0.128-0.21-0.234-0.362-0.315-0.456c-0.081-0.093-0.191-0.158-0.326-0.196l-0.473-0.146l-0.012-0.223
			c0.316,0.014,0.744,0.021,1.281,0.021c0.47,0,0.953-0.008,1.454-0.021l0.021,0.223l-0.491,0.135
			c-0.072,0.018-0.124,0.043-0.155,0.075c-0.031,0.033-0.047,0.073-0.047,0.122c0,0.072,0.027,0.161,0.081,0.267
			c0.053,0.105,0.119,0.228,0.201,0.365L121.783,89.57z"/>
	</g>
</g>
</svg>
